<?xml version="1.0" standalone="no"?>
<!DOCTYPE svg PUBLIC "-//W3C//DTD SVG 20010904//EN"
 "http://www.w3.org/TR/2001/REC-SVG-20010904/DTD/svg10.dtd">
<svg version="1.0" xmlns="http://www.w3.org/2000/svg"
 width="512.000000pt" height="512.000000pt" viewBox="0 0 512.000000 512.000000"
 preserveAspectRatio="xMidYMid meet">

<g transform="translate(0.000000,512.000000) scale(0.100000,-0.100000)"
fill="#eeeeee" stroke="none">
<path d="M2915 5110 c-89 -13 -227 -56 -303 -94 l-67 -34 -40 21 c-132 67
-249 97 -415 104 -200 9 -376 -25 -547 -106 -287 -137 -487 -350 -582 -620
l-26 -74 -75 -26 c-341 -120 -611 -448 -696 -843 -25 -114 -25 -345 -1 -448
21 -90 47 -160 86 -238 l29 -57 -25 -50 c-87 -170 -123 -416 -93 -625 25 -173
112 -384 217 -526 33 -43 101 -118 152 -166 l93 -88 -1 -268 c-1 -147 1 -275
5 -285 6 -16 30 -17 286 -17 l280 0 64 -60 c338 -315 867 -403 1258 -208 l59
30 80 -37 c344 -158 780 -106 1112 130 44 31 100 77 125 101 l45 44 285 2 285
3 7 140 c3 77 3 208 -2 290 l-8 150 27 23 c193 172 306 327 375 522 56 158 71
245 70 415 -2 175 -25 286 -91 427 l-39 83 38 82 c66 142 82 223 83 418 0 143
-4 184 -22 260 -55 221 -160 411 -314 566 -43 44 -79 82 -79 84 0 2 25 30 55
61 66 70 138 208 161 309 34 154 29 364 -13 532 l-15 62 -62 -5 c-177 -16
-327 -58 -470 -132 -71 -36 -110 -65 -180 -134 l-90 -89 -45 44 c-218 207
-493 323 -786 332 -71 2 -157 0 -190 -5z m-234 -1315 c144 -31 269 -99 391
-213 l67 -64 93 7 c162 12 340 -27 453 -99 82 -53 193 -163 247 -245 147 -224
105 -444 -98 -521 -51 -19 -72 -21 -159 -17 -64 3 -120 12 -156 25 l-56 20 -6
-171 c-4 -113 -12 -203 -25 -262 -88 -407 -345 -773 -647 -920 -115 -57 -208
-73 -303 -56 -193 35 -425 219 -592 468 -170 253 -250 512 -250 806 0 129 -1
139 -17 132 -75 -32 -154 -46 -243 -43 -82 3 -103 7 -153 33 -102 51 -151 133
-150 247 2 139 61 256 194 388 47 47 111 100 142 118 125 75 311 113 462 96
l80 -9 81 75 c195 181 420 252 645 205z"/>
<path d="M2449 3496 c-240 -69 -432 -354 -494 -731 -19 -116 -19 -311 0 -412
30 -158 98 -316 197 -460 53 -78 188 -222 227 -243 20 -10 21 -9 21 67 l0 78
-112 112 -113 113 375 0 375 0 -113 -113 -112 -112 0 -83 c0 -83 0 -83 23 -71
79 42 244 244 316 387 105 209 144 470 106 720 -45 304 -174 547 -364 687 -83
60 -237 89 -332 61z"/>
<path d="M1697 3220 c-104 -18 -221 -102 -287 -207 -43 -68 -41 -77 21 -71 58
6 178 63 237 113 35 31 102 138 102 164 0 12 -4 12 -73 1z"/>
<path d="M3320 3226 c0 -13 30 -71 60 -114 58 -86 224 -177 306 -170 l34 3
-22 44 c-26 53 -116 147 -176 185 -47 29 -202 69 -202 52z"/>
<path d="M667 373 c-4 -9 17 -122 53 -275 l22 -98 434 0 433 0 -24 72 c-13 40
-40 126 -60 190 l-36 118 -409 0 c-225 0 -411 -3 -413 -7z"/>
<path d="M3645 368 c-3 -7 -28 -85 -55 -173 -28 -88 -53 -168 -56 -177 -5 -17
20 -18 425 -18 l431 0 6 28 c3 15 12 52 19 82 13 50 55 257 55 266 0 2 -185 4
-410 4 -319 0 -412 -3 -415 -12z"/>
</g>
</svg>
