<?xml version="1.0" standalone="no"?>
<!DOCTYPE svg PUBLIC "-//W3C//DTD SVG 20010904//EN"
 "http://www.w3.org/TR/2001/REC-SVG-20010904/DTD/svg10.dtd">
<svg version="1.0" xmlns="http://www.w3.org/2000/svg"
 width="128.000000pt" height="128.000000pt" viewBox="0 0 128.000000 128.000000"
 preserveAspectRatio="xMidYMid meet">

<g transform="translate(0.000000,128.000000) scale(0.100000,-0.100000)"
fill="#000000" stroke="none">
<path d="M447 1270 c-88 -22 -160 -79 -196 -154 -14 -30 -29 -47 -50 -54 -41
-14 -109 -78 -133 -126 -29 -56 -36 -171 -15 -225 15 -36 15 -44 2 -75 -20
-46 -19 -131 1 -189 9 -26 36 -69 61 -97 38 -42 44 -54 38 -79 -3 -16 -3 -45
1 -65 l6 -36 64 0 c57 0 69 -4 111 -34 27 -18 66 -39 87 -46 52 -17 142 -15
186 3 30 13 39 13 72 0 79 -32 231 0 285 59 13 14 31 18 90 18 l73 0 0 71 c0
68 1 73 39 116 22 24 47 65 55 90 20 58 21 153 2 198 -13 31 -13 39 0 70 33
79 10 201 -52 274 l-35 41 20 28 c27 39 44 117 36 170 -6 39 -8 42 -38 42 -44
-1 -100 -22 -142 -55 l-35 -26 -30 25 c-39 32 -131 66 -180 66 -22 0 -61 -7
-87 -16 -38 -13 -54 -14 -78 -5 -46 16 -115 21 -158 11z m299 -358 c33 -24 56
-32 87 -32 84 0 167 -75 167 -150 0 -51 -35 -75 -95 -67 l-42 6 -2 -54 c-3
-140 -119 -295 -221 -295 -98 0 -214 148 -227 289 l-6 58 -41 -4 c-76 -9 -117
48 -82 115 34 64 96 102 169 102 26 0 48 7 61 19 66 62 155 67 232 13z"/>
<path d="M594 866 c-94 -41 -138 -232 -80 -349 30 -63 86 -122 86 -92 0 10
-12 32 -27 47 l-27 28 89 0 89 0 -27 -28 c-26 -27 -36 -62 -18 -62 18 0 72 75
91 128 46 123 -2 289 -96 328 -40 17 -41 17 -80 0z"/>
<path d="M405 796 c-33 -14 -61 -43 -52 -53 10 -10 67 18 78 39 14 26 10 29
-26 14z"/>
<path d="M830 802 c0 -6 14 -22 31 -36 49 -41 83 -31 37 11 -27 24 -68 39 -68
25z"/>
<path d="M174 59 c3 -17 6 -38 6 -45 0 -11 23 -14 111 -14 102 0 111 1 104 18
-3 9 -9 29 -12 45 l-5 27 -105 0 -105 0 6 -31z"/>
<path d="M897 45 l-16 -45 110 0 c60 0 109 3 109 8 0 4 4 24 9 44 l9 38 -103
0 -103 0 -15 -45z"/>
</g>
</svg>
